<svg width="389" height="172" viewBox="0 0 389 172" fill="none" xmlns="http://www.w3.org/2000/svg">
    <path d="M24.9406 108.006C38.7149 143.241 78.4447 160.638 113.679 146.864C133.53 139.103 147.72 123.104 153.862 104.312L124.333 91.1612C121.733 102.547 113.725 112.487 102.028 117.06C83.2536 124.4 62.0838 115.13 54.7442 96.3549C47.4046 77.5801 56.6746 56.4103 75.4493 49.0707C83.1441 46.0626 91.8214 45.9553 99.2038 48.0381L93.8577 60.1272C89.4485 59.139 84.7075 59.4094 80.1826 61.1784C68.0947 65.9039 62.1264 79.5338 66.8519 91.6216C71.5774 103.709 85.2073 109.678 97.2951 104.952L93.6542 95.6387C86.7101 98.3534 78.8801 94.9247 76.1655 87.9807C73.4508 81.0366 76.8795 73.2066 83.8236 70.492C88.9433 68.4905 94.8772 69.9287 98.5909 72.2349L112.243 42.9407C100.389 36.0073 85.5918 34.3687 71.8084 39.7571C47.8899 49.1075 36.0801 76.0773 45.4306 99.9959C54.781 123.914 81.7508 135.724 105.669 126.374C116.658 122.078 125.09 114.064 130.09 104.335L140.938 109.477C134.671 121.873 123.993 132.095 110.039 137.55C79.9475 149.313 46.0177 134.456 34.2542 104.365C22.4908 74.274 37.3482 40.3442 67.4392 28.5807C84.457 21.928 102.703 23.7896 117.472 32.1059L121.617 22.9696C104.461 13.595 83.4316 11.5919 63.7982 19.2671C28.5634 33.0414 11.1663 72.7712 24.9406 108.006Z" fill="black"/>
    <mask id="mask0_1208_1591" style="mask-type:alpha" maskUnits="userSpaceOnUse" x="104" y="21" width="285" height="131">
        <path d="M151 97.5L147.5 121L362 151.5L388.5 21L282.5 24H115.5L104.5 76.5L151 97.5Z" fill="#C4C4C4"/>
    </mask>
    <g mask="url(#mask0_1208_1591)">
        <path d="M90.01 114L124.33 37H141.93L176.36 114H157.66L129.5 46.02H136.54L108.27 114H90.01ZM107.17 97.5L111.9 83.97H151.5L156.34 97.5H107.17ZM184.349 114V37H199.089L244.519 92.44H237.369V37H254.969V114H240.339L194.799 58.56H201.949V114H184.349ZM295.964 114L262.744 37H281.994L311.034 105.2H299.704L329.184 37H346.894L313.564 114H295.964Z" fill="black"/>
    </g>
</svg>